<svg width="512" height="512" viewBox="0 0 512 512" fill="none" xmlns="http://www.w3.org/2000/svg">
<path d="M459.443 114.909C447.027 93.7832 430.572 75.3096 411.018 60.543C391.463 45.7765 369.191 35.0061 345.473 28.8469C321.756 22.6878 297.058 21.2604 272.789 24.6462C248.52 28.0321 225.155 36.165 204.029 48.5805C182.904 60.996 164.43 77.4509 149.663 97.0059C134.897 116.561 124.127 138.833 117.967 162.55C111.808 186.267 110.381 210.966 113.767 235.235C117.153 259.504 125.285 282.868 137.701 303.994L298.572 209.452L459.443 114.909Z" fill="#3B82F6"/>
<path d="M51.5805 397.054C76.6547 439.719 117.651 470.677 165.55 483.116C213.449 495.555 264.328 488.456 306.994 463.382C349.66 438.308 380.617 397.312 393.056 349.412C405.495 301.513 398.397 250.634 373.323 207.969L212.452 302.511L51.5805 397.054Z" fill="#A78BFA"/>
</svg>
